<svg width="10" height="34" viewBox="0 0 10 34" fill="none" xmlns="http://www.w3.org/2000/svg">
<path d="M5.00016 33.6667C2.69898 33.6667 0.833496 31.8012 0.833496 29.5C0.833496 27.1988 2.69898 25.3333 5.00016 25.3333C7.30135 25.3333 9.16683 27.1988 9.16683 29.5C9.16683 31.8012 7.30135 33.6667 5.00016 33.6667ZM5.00016 21.1667C2.69898 21.1667 0.833496 19.3012 0.833496 17C0.833496 14.6988 2.69898 12.8333 5.00016 12.8333C7.30135 12.8333 9.16683 14.6988 9.16683 17C9.16683 18.1051 8.72784 19.1649 7.94644 19.9463C7.16504 20.7277 6.10523 21.1667 5.00016 21.1667ZM5.00016 8.66668C2.69898 8.66668 0.833496 6.8012 0.833496 4.50001C0.833496 2.19882 2.69898 0.333344 5.00016 0.333344C7.30135 0.333344 9.16683 2.19882 9.16683 4.50001C9.16683 5.60508 8.72784 6.66489 7.94644 7.44629C7.16504 8.22769 6.10523 8.66668 5.00016 8.66668Z" fill="#323232"/>
</svg>
