<svg width="30" height="30" viewBox="0 0 30 30" fill="none" xmlns="http://www.w3.org/2000/svg">
<circle cx="15" cy="15" r="12.5" fill="#0077B5"/>
<path fill-rule="evenodd" clip-rule="evenodd" d="M11.7342 8.92743C11.7342 9.70561 11.1417 10.3354 10.2151 10.3354C9.3246 10.3354 8.73208 9.70561 8.75041 8.92743C8.73208 8.11143 9.32458 7.5 10.2328 7.5C11.1417 7.5 11.7165 8.11143 11.7342 8.92743ZM8.82491 20.5119V11.4476H11.642V20.5113H8.82491V20.5119Z" fill="white"/>
<path fill-rule="evenodd" clip-rule="evenodd" d="M13.8999 14.3403C13.8999 13.2097 13.8627 12.2459 13.8254 11.4488H16.2723L16.4024 12.6906H16.458C16.8287 12.1158 17.7553 11.2454 19.2567 11.2454C21.1099 11.2454 22.5001 12.4688 22.5001 15.1368V20.5131H19.683V15.4898C19.683 14.3214 19.2756 13.5249 18.2562 13.5249C17.4774 13.5249 17.0144 14.0624 16.8293 14.581C16.7548 14.7667 16.7181 15.0257 16.7181 15.2858V20.5131H13.9011V14.3403H13.8999Z" fill="white"/>
</svg>
