<svg width="28" height="56" viewBox="0 0 28 56" fill="none" xmlns="http://www.w3.org/2000/svg">
<path d="M14 13.55L2.35 7.6L14 1.5L25.5 7.6L14 13.55Z" fill="black"/>
<path d="M27 9.6C23.5667 11.25 16.4 14.73 15.2 15.45V55.1L27 49.15V9.6Z" fill="black"/>
<path d="M12.75 41.75L1 35.95V49.15L12.75 55V41.75Z" fill="black"/>
<path d="M14 13.55L2.35 7.6L14 1.5L25.5 7.6L14 13.55Z" stroke="black"/>
<path d="M27 9.6C23.5667 11.25 16.4 14.73 15.2 15.45V55.1L27 49.15V9.6Z" stroke="black"/>
<path d="M12.75 41.75L1 35.95V49.15L12.75 55V41.75Z" stroke="black"/>
</svg>
