<svg width="40" height="40" viewBox="0 0 40 40" fill="none" xmlns="http://www.w3.org/2000/svg">
<g clip-path="url(#clip0_10_198)">
<path d="M3.33333 10H0V18.3334H0.0166667L0 33.3334C0 35.1667 1.5 36.6667 3.33333 36.6667H33.3333V33.3334H3.33333V10ZM11.6667 25H35L29.1667 17.5L25 22.5167L19.1667 15L11.6667 25ZM36.6667 6.66671H23.3333L20 3.33337H10C8.16667 3.33337 6.68333 4.83337 6.68333 6.66671L6.66667 26.6667C6.66667 28.5 8.16667 30 10 30H36.6667C38.5 30 40 28.5 40 26.6667V10C40 8.16671 38.5 6.66671 36.6667 6.66671ZM36.6667 26.6667H10V6.66671H18.6167L20.9667 9.01671L21.95 10H36.6667V26.6667Z" fill="#999993"/>
</g>
<defs>
<clipPath id="clip0_10_198">
<rect width="40" height="40" fill="white"/>
</clipPath>
</defs>
</svg>
