<svg width="40" height="38" viewBox="0 0 40 38" fill="none" xmlns="http://www.w3.org/2000/svg">
<path d="M31.5334 18.75C31.6001 19.2656 31.6667 19.7812 31.6667 20.3125C31.6667 23.5625 30.3334 26.5156 28.1667 28.7344C27.7334 27.4687 26.5001 26.5625 25.0001 26.5625H23.3334V21.875C23.3334 21.0156 22.5834 20.3125 21.6667 20.3125H11.6667V17.1875H15.0001C15.9167 17.1875 16.6667 16.4844 16.6667 15.625V12.5H20.0001C21.8334 12.5 23.3334 11.0938 23.3334 9.375V5.40625C21.7501 4.9375 20.0834 4.6875 18.3334 4.6875C9.13341 4.6875 1.66675 11.6875 1.66675 20.3125C1.66675 28.9375 9.13341 35.9375 18.3334 35.9375C27.5334 35.9375 35.0001 28.9375 35.0001 20.3125C35.0001 19.7812 34.9667 19.2656 34.9167 18.75H31.5334ZM16.6667 32.7031C10.0834 31.9375 5.00008 26.6875 5.00008 20.3125C5.00008 19.3438 5.13341 18.4219 5.35008 17.5156L13.3334 25V26.5625C13.3334 28.2812 14.8334 29.6875 16.6667 29.6875V32.7031ZM36.6667 6.25V5.46875C36.6667 3.3125 34.8001 1.5625 32.5001 1.5625C30.2001 1.5625 28.3334 3.3125 28.3334 5.46875V6.25C27.4167 6.25 26.6667 6.95312 26.6667 7.8125V14.0625C26.6667 14.9219 27.4167 15.625 28.3334 15.625H36.6667C37.5834 15.625 38.3334 14.9219 38.3334 14.0625V7.8125C38.3334 6.95312 37.5834 6.25 36.6667 6.25ZM35.0001 6.25H30.0001V5.46875C30.0001 4.17188 31.1167 3.125 32.5001 3.125C33.8834 3.125 35.0001 4.17188 35.0001 5.46875V6.25Z" fill="#555444"/>
</svg>
