<svg width="40" height="40" viewBox="0 0 40 40" fill="none" xmlns="http://www.w3.org/2000/svg">
<rect width="40" height="40" fill="white"/>
<path fill-rule="evenodd" clip-rule="evenodd" d="M12.9167 6.66667C12.9167 5.05585 14.2225 3.75 15.8334 3.75H33.3334C34.9443 3.75 36.2501 5.05585 36.2501 6.66667V24.1667C36.2501 25.7775 34.9443 27.0833 33.3334 27.0833H25.8334C25.1431 27.0833 24.5834 26.5237 24.5834 25.8333C24.5834 25.143 25.1431 24.5833 25.8334 24.5833H33.3334C33.5636 24.5833 33.7501 24.3968 33.7501 24.1667V6.66667C33.7501 6.43654 33.5635 6.25 33.3334 6.25H15.8334C15.6033 6.25 15.4167 6.43654 15.4167 6.66667V14.1667C15.4167 14.857 14.8571 15.4167 14.1667 15.4167C13.4764 15.4167 12.9167 14.857 12.9167 14.1667V6.66667Z" fill="#999993"/>
<path fill-rule="evenodd" clip-rule="evenodd" d="M3.75 15.8333C3.75 14.2224 5.05585 12.9166 6.66667 12.9166H14.1667C14.857 12.9166 15.4167 13.4763 15.4167 14.1666C15.4167 14.857 14.857 15.4166 14.1667 15.4166H6.66667C6.43654 15.4166 6.25 15.6032 6.25 15.8333V33.3333C6.25 33.5634 6.43654 33.75 6.66667 33.75H24.1667C24.3968 33.75 24.5833 33.5634 24.5833 33.3333V25.8333C24.5833 25.1429 25.143 24.5833 25.8333 24.5833C26.5237 24.5833 27.0833 25.1429 27.0833 25.8333V33.3333C27.0833 34.9441 25.7775 36.25 24.1667 36.25H6.66667C5.05585 36.25 3.75 34.9442 3.75 33.3333V15.8333Z" fill="#999993"/>
<path d="M24.1667 14.1666H15.8334C14.9129 14.1666 14.1667 14.9128 14.1667 15.8333V24.1666C14.1667 25.0871 14.9129 25.8333 15.8334 25.8333H24.1667C25.0872 25.8333 25.8334 25.0871 25.8334 24.1666V15.8333C25.8334 14.9128 25.0872 14.1666 24.1667 14.1666Z" fill="#999993"/>
<path fill-rule="evenodd" clip-rule="evenodd" d="M15.8334 15.4166C15.6033 15.4166 15.4167 15.6032 15.4167 15.8333V24.1666C15.4167 24.3967 15.6033 24.5833 15.8334 24.5833H24.1667C24.3969 24.5833 24.5834 24.3967 24.5834 24.1666V15.8333C24.5834 15.6032 24.3969 15.4166 24.1667 15.4166H15.8334ZM12.9167 15.8333C12.9167 14.2225 14.2226 12.9166 15.8334 12.9166H24.1667C25.7776 12.9166 27.0834 14.2225 27.0834 15.8333V24.1666C27.0834 25.7775 25.7776 27.0833 24.1667 27.0833H15.8334C14.2226 27.0833 12.9167 25.7775 12.9167 24.1666V15.8333Z" fill="#999993"/>
</svg>
