<svg width="38" height="38" viewBox="0 0 38 38" fill="none" xmlns="http://www.w3.org/2000/svg">
<path d="M30.5334 19C30.6001 19.55 30.6667 20.1 30.6667 20.6666C30.6667 24.1333 29.3334 27.2833 27.1667 29.65C26.7334 28.3 25.5001 27.3333 24.0001 27.3333H22.3334V22.3333C22.3334 21.4166 21.5834 20.6666 20.6667 20.6666H10.6667V17.3333H14.0001C14.9167 17.3333 15.6667 16.5833 15.6667 15.6666V12.3333H19.0001C20.8334 12.3333 22.3334 10.8333 22.3334 8.99996V4.76663C20.7501 4.26663 19.0834 3.99996 17.3334 3.99996C8.13341 3.99996 0.666748 11.4666 0.666748 20.6666C0.666748 29.8666 8.13341 37.3333 17.3334 37.3333C26.5334 37.3333 34.0001 29.8666 34.0001 20.6666C34.0001 20.1 33.9667 19.55 33.9167 19H30.5334ZM15.6667 33.8833C9.08341 33.0666 4.00008 27.4666 4.00008 20.6666C4.00008 19.6333 4.13341 18.65 4.35008 17.6833L12.3334 25.6666V27.3333C12.3334 29.1666 13.8334 30.6666 15.6667 30.6666V33.8833ZM35.6667 5.66663V4.83329C35.6667 2.53329 33.8001 0.666626 31.5001 0.666626C29.2001 0.666626 27.3334 2.53329 27.3334 4.83329V5.66663C26.4167 5.66663 25.6667 6.41663 25.6667 7.33329V14C25.6667 14.9166 26.4167 15.6666 27.3334 15.6666H35.6667C36.5834 15.6666 37.3334 14.9166 37.3334 14V7.33329C37.3334 6.41663 36.5834 5.66663 35.6667 5.66663ZM34.0001 5.66663H29.0001V4.83329C29.0001 3.44996 30.1167 2.33329 31.5001 2.33329C32.8834 2.33329 34.0001 3.44996 34.0001 4.83329V5.66663Z" fill="#999993"/>
</svg>
